<?xml version="1.0" encoding="utf-8"?>
<!-- Generator: Adobe Illustrator 16.0.3, SVG Export Plug-In . SVG Version: 6.00 Build 0)  -->
<!DOCTYPE svg PUBLIC "-//W3C//DTD SVG 1.1//EN" "http://www.w3.org/Graphics/SVG/1.1/DTD/svg11.dtd">
<svg version="1.1" id="Capa_3" xmlns="http://www.w3.org/2000/svg" xmlns:xlink="http://www.w3.org/1999/xlink" x="0px" y="0px"
	 width="24px" height="24px" viewBox="0 0 24 24" enable-background="new 0 0 24 24" xml:space="preserve">
<g>
	<polyline fill="none" stroke="#A3ABB8" stroke-width="0.5" stroke-miterlimit="10" points="20.475,6.335 20.531,23.459 
		3.565,23.387 3.421,7.502 	"/>
	<polygon fill="none" stroke="#A3ABB8" stroke-width="0.5" stroke-miterlimit="10" points="3.685,7.32 8.619,7.327 8.629,1.77 	"/>
	<g>
		<path fill="none" stroke="#A3ABB8" stroke-width="0.5" stroke-miterlimit="10" d="M10.515,7.31c0,0,0.341-1.339,2.264-1.364
			c0,0,1.777-0.049,2.047,1.413l-0.024,6.6c0,0-0.219,1.949-2.022,1.949c0,0-2.118,0.098-2.263-2.07L10.515,7.31L10.515,7.31z"/>
		<path fill="none" stroke="#A3ABB8" stroke-width="0.5" stroke-linecap="round" stroke-miterlimit="10" d="M12.73,17.516
			c0,0,4.386,0.269,4.434-5.091"/>
		<path fill="none" stroke="#A3ABB8" stroke-width="0.5" stroke-linecap="round" stroke-miterlimit="10" d="M12.68,17.516
			c0,0-4.384,0.269-4.433-5.09"/>
		<line fill="none" stroke="#A3ABB8" stroke-width="0.5" stroke-miterlimit="10" x1="12.73" y1="17.516" x2="12.73" y2="21.125"/>
	</g>
	<line fill="none" stroke="#A3ABB8" stroke-width="0.5" stroke-miterlimit="10" x1="10.515" y1="21.125" x2="14.826" y2="21.125"/>
	<circle fill="none" stroke="#A3ABB8" stroke-width="0.5" stroke-miterlimit="10" cx="19.671" cy="3.438" r="2.896"/>
	<path fill="none" stroke="#A3ABB8" stroke-width="0.5" stroke-miterlimit="10" d="M20.475,6.335"/>
	<path fill="none" stroke="#A3ABB8" stroke-width="0.5" stroke-miterlimit="10" d="M20.475,6.335"/>
	<line fill="none" stroke="#A3ABB8" stroke-width="0.5" stroke-miterlimit="10" x1="8.863" y1="1.385" x2="17.632" y2="1.385"/>
	<line fill="none" stroke="#A3ABB8" stroke-width="0.5" stroke-miterlimit="10" x1="19.671" y1="2.042" x2="19.671" y2="4.854"/>
	<line fill="none" stroke="#A3ABB8" stroke-width="0.5" stroke-miterlimit="10" x1="18.316" y1="3.438" x2="21.004" y2="3.438"/>
</g>
</svg>
