<?xml version="1.0" encoding="utf-8"?>
<!-- Generator: Adobe Illustrator 16.0.3, SVG Export Plug-In . SVG Version: 6.00 Build 0)  -->
<!DOCTYPE svg PUBLIC "-//W3C//DTD SVG 1.1//EN" "http://www.w3.org/Graphics/SVG/1.1/DTD/svg11.dtd">
<svg version="1.1" xmlns="http://www.w3.org/2000/svg" xmlns:xlink="http://www.w3.org/1999/xlink" x="0px" y="0px" width="24px"
	 height="24px" viewBox="0 0 24 24" enable-background="new 0 0 24 24" xml:space="preserve">
<g id="Capa_1" display="none">
	
		<ellipse display="inline" fill="none" stroke="#FFFFFF" stroke-width="0.5" stroke-miterlimit="10" cx="12.046" cy="11.993" rx="11.203" ry="11.26"/>
	
		<polygon display="inline" fill="none" stroke="#FFFFFF" stroke-width="0.5" stroke-linecap="round" stroke-linejoin="round" stroke-miterlimit="10" points="
		10.415,8.242 10.415,15.95 15.854,12.096 	"/>
</g>
<g id="Capa_2">
	<path fill="#CD47ED" d="M15.013,20.895c0,1.438-1.35,2.604-3.014,2.604c-1.664,0-3.012-1.167-3.012-2.604v-0.562h6.026V20.895z"/>
	<path fill="#CD47ED" d="M10.482,19.766h11.593l-0.004-1.409c0.043-1.124-0.724-1.626-0.724-1.626
		c-2.591-2.069-2.382-3.294-2.382-3.294l-0.048-4.962c-0.562-5.182-5.332-6.208-5.332-6.208c0-0.975-0.696-1.766-1.553-1.766
		s-1.551,0.791-1.551,1.766c0,0-4.823,0.864-5.385,6.208l-0.066,4.962c0,0,0.21,1.225-2.381,3.294c0,0-0.764,0.502-0.724,1.626
		l-0.001,1.409H10.482"/>
</g>
</svg>
