<?xml version="1.0" encoding="utf-8"?>
<!-- Generator: Adobe Illustrator 16.0.3, SVG Export Plug-In . SVG Version: 6.00 Build 0)  -->
<!DOCTYPE svg PUBLIC "-//W3C//DTD SVG 1.1//EN" "http://www.w3.org/Graphics/SVG/1.1/DTD/svg11.dtd">
<svg version="1.1" id="Capa_2" xmlns="http://www.w3.org/2000/svg" xmlns:xlink="http://www.w3.org/1999/xlink" x="0px" y="0px"
	 width="24px" height="24px" viewBox="0 0 24 24" enable-background="new 0 0 24 24" xml:space="preserve">
<g>
	<path fill="#BCBFC9" d="M11.959,1.793c0.153-0.436-0.632-0.212-0.792-0.053c-0.058,0.058-0.023,0.161-0.07,0.223
		c-0.081,0.107-0.216,0.169-0.143,0.223C11.072,2.271,11.806,2.228,11.959,1.793z"/>
	<path fill="#BCBFC9" d="M14.577,11.089c-0.34-0.11-0.435,0.093-0.626,0.082c-0.192-0.012-1.045-0.703-1.721-0.638
		c-0.33,0.032-0.266,0.212-0.266,0.212c0.064,0.074,0.585-0.01,1.338,0.437c0.754,0.445,1.063,0.169,1.211,0.126
		C14.662,11.267,14.917,11.199,14.577,11.089z"/>
	<path fill="#BCBFC9" d="M12.262,2.621c-0.127-0.105-0.892-0.138-1.083-0.117c-0.191,0.021-0.032,0.234,0.35,0.266
		c0.382,0.032,1.001,0.16,0.553,0.605c-0.115,0.115,0.51,0.182,0.776,0.192c0.265,0.011,0.308-0.159,0.265-0.362
		C13.08,3.004,12.389,2.728,12.262,2.621z"/>
	<path fill="#BCBFC9" d="M13.845,1.654c-0.467-0.053-1.274-0.393-1.561-0.138c-0.287,0.255-0.354,0.425-0.167,0.553
		c0.188,0.127,0.666-0.127,1.557,0.637c0.206,0.176,1.275,0.957,1.487,0.787c0.213-0.17-0.287-0.565-0.297-0.994
		C14.854,2.069,14.312,1.708,13.845,1.654z"/>
	<path fill="#BCBFC9" d="M12,0.447C5.73,0.447,0.647,5.619,0.647,12c0,6.381,5.083,11.554,11.353,11.554
		c6.271,0,11.353-5.173,11.353-11.554C23.353,5.619,18.271,0.447,12,0.447z M14.334,22.595c0.276-0.209,0.387-0.87,1.009-1.238
		c0.7-0.415,1.443-0.956,1.975-1.393c0.531-0.434,0.775-1.115,1.306-1.411c0.532-0.298,2.221-3.018,1.892-3.559
		s-1.647-0.328-1.977-0.488c-0.329-0.159-0.085-0.648-0.435-0.891c-0.351-0.246-0.871-0.16-1.89-0.744
		c-1.021-0.585-1.488-0.191-1.605-0.16c-0.116,0.032-0.935,0.722-1.179,0.701c-0.243-0.021-1.38,0.057-1.422-0.85
		c-0.042-0.905-0.818-0.925-0.882-0.935c-0.063-0.011,0.319-0.679,0.021-0.828s-1.179,1.2-1.71,0.149
		C8.906,9.896,9.902,9.38,10.35,9.259c1.487-0.403,1.763,0.679,2.039,0.638c0.277-0.042-0.254-0.733-0.105-1.052
		s0.722-0.658,0.711-0.882c-0.011-0.222-0.211-1.147,0.669-1.284c0,0-0.16-0.244,0.01-0.339c0.171-0.097,0.213-0.373,0.479-0.107
		c0,0,0.647-0.307,0.436-0.468c-0.212-0.158-1.009-0.232,0.256-0.923c0,0-1.009-0.852-1.381-0.968
		c-0.371-0.117-0.276,0.204-0.787-0.136c0,0-0.689-0.352-0.605,0.095c0.086,0.446,0.34,1.456-0.488,0.849
		c-0.829-0.604-1.307-0.604-0.839-0.923s0.669-0.298,0.574-0.478s0.542-0.372-0.17-0.319c-0.711,0.054-0.839-0.51-1.307-0.584
		C9.374,2.302,9.087,2.398,9.288,2.589C9.49,2.781,9.45,2.845,8.853,2.653C8.255,2.462,7.801,2.058,7.058,2.579
		C6.314,3.1,5.285,3.663,5.252,3.992c0,0,1.211-0.723,1.423-0.383S6.59,4.884,6.867,5.329c0.276,0.447-0.255-0.507-0.297,0.192
		C6.527,6.219,5.635,6.902,6.314,8.24c0.68,1.338,0.245,1.189,0.458,1.466c0.212,0.276,0.372,0.615,0.446,0.584
		c0.075-0.031-0.382-1.147-0.308-1.242c0.074-0.097,0.112,0.329,0.315,0.637c0.205,0.307,0.64,0.734,0.651,1.03
		c0.01,0.295,0.074,0.712,0.807,1.008c0.733,0.298,1.688,0.649,1.986,0.766c0.297,0.116,0.319-0.031,0.51,0.159
		s0.255,0.446,0.393,0.553c0.139,0.106,0.787,0.509,0.936,0.499c0.148-0.012,0.201-0.191,0.308-0.182
		c0.106,0.012,0.53,0.268,0.542,0.361c0.01,0.097,0.01,0.416-0.021,0.499c-0.032,0.087-0.723,0.915-0.595,1.466
		c0.037,0.162-0.203,0.256,0.382,0.881c0.585,0.627,0.319,0.872,1.275,1.413c0.955,0.543-0.012,2.155-0.319,2.793
		c-0.276,0.572-0.247,1.575,0.033,1.711c-0.694,0.139-1.412,0.212-2.146,0.212c-6.007,0-10.875-4.867-10.875-10.876
		c0-6.005,4.869-10.875,10.875-10.875c6.005,0,10.875,4.87,10.875,10.875C22.84,17.171,19.201,21.514,14.334,22.595z"/>
</g>
</svg>
