<?xml version="1.0" encoding="utf-8"?>
<!-- Generator: Adobe Illustrator 16.0.3, SVG Export Plug-In . SVG Version: 6.00 Build 0)  -->
<!DOCTYPE svg PUBLIC "-//W3C//DTD SVG 1.1//EN" "http://www.w3.org/Graphics/SVG/1.1/DTD/svg11.dtd">
<svg version="1.1" id="Capa_2" xmlns="http://www.w3.org/2000/svg" xmlns:xlink="http://www.w3.org/1999/xlink" x="0px" y="0px"
	 width="24px" height="24px" viewBox="0 0 24 24" enable-background="new 0 0 24 24" xml:space="preserve">
<path fill="#FFFFFF" d="M22.674,4.199l-0.506,0.505L19.133,1.67l0.505-0.506c0.56-0.559,1.466-0.559,2.024,0l1.012,1.012
	C23.231,2.733,23.231,3.639,22.674,4.199z M8.565,17.272c-0.139,0.141-0.139,0.365,0,0.506c0.14,0.139,0.367,0.139,0.506,0
	L21.653,5.206l-0.542-0.496L8.565,17.272z M6.037,14.743c-0.14,0.141-0.14,0.366,0,0.507c0.14,0.14,0.366,0.14,0.505,0L19.177,2.704
	l-0.521-0.518L6.037,14.743z M19.177,2.704L6.678,15.115c-0.28,0.28,0.092,1.371,0.371,1.651c0.279,0.279,1.236,0.787,1.517,0.506
	L21.111,4.709L19.177,2.704z M8.059,18.283c-0.172-0.171-0.254-0.39-0.285-0.612c-0.072,0.011-0.146,0.022-0.22,0.022
	c-0.382,0-0.741-0.151-1.012-0.421c-0.27-0.271-0.419-0.629-0.419-1.01c0-0.071,0.011-0.14,0.02-0.207
	c-0.23-0.031-0.444-0.133-0.612-0.302c-0.016-0.016-0.022-0.035-0.037-0.054l-0.873,3.493l3.485-0.871
	C8.09,18.308,8.074,18.297,8.059,18.283z"/>
<path fill="none" stroke="#FFFFFF" stroke-miterlimit="10" d="M20.221,6.375c1.262,1.751,2.004,3.901,2.004,6.224
	c0,5.885-4.771,10.657-10.658,10.657c-5.886,0-10.658-4.772-10.658-10.657c0-5.887,4.772-10.659,10.658-10.659
	c2.208,0,4.258,0.671,5.959,1.821"/>
</svg>
