<svg xmlns="http://www.w3.org/2000/svg" width="16.457" height="21.021" viewBox="0 0 16.457 21.021">
  <g id="ic_guitar" transform="translate(-3881 -5807.479)">
    <g id="Grupo_298" data-name="Grupo 298">
      <path id="Trazado_190" data-name="Trazado 190" d="M289.721,535.819V521.084h4.885V516.2h10.17v19.62Zm4.2-15.456H290.2l3.724-3.683ZM289,520.6v15.9h16.457V515.479H294.125Z" transform="translate(3592 5292)" fill="#a0a0a0"/>
    </g>
    <path id="Trazado_191" data-name="Trazado 191" d="M299.731,529.493c-.681,0-1.241-.4-1.241-.841,0-.481.56-.841,1.241-.841s1.241.4,1.241.841S300.412,529.493,299.731,529.493Zm-4.685-4.565v-1.521l5.926-1.882v1.521Zm-1.882,6.647c-.68,0-1.241-.4-1.241-.841s.561-.841,1.241-.841,1.242.4,1.242.841C294.406,531.215,293.845,531.575,293.164,531.575Zm8.449-8.289v-2.2a.363.363,0,0,0-.12-.28.246.246,0,0,0-.28-.04l-6.567,2.082a.348.348,0,0,0-.24.32v6.407a2.253,2.253,0,0,0-1.242-.361,2.45,2.45,0,0,0-1.321.4,1.435,1.435,0,0,0-.6,1.081,1.272,1.272,0,0,0,.6,1.081,2.077,2.077,0,0,0,1.321.4,2.453,2.453,0,0,0,1.322-.4,1.434,1.434,0,0,0,.6-1.081v-5.085l5.926-1.882v3.764a2.242,2.242,0,0,0-1.241-.361,2.45,2.45,0,0,0-1.321.4,1.43,1.43,0,0,0-.6,1.081,1.27,1.27,0,0,0,.6,1.081,2.076,2.076,0,0,0,1.321.4,2.447,2.447,0,0,0,1.321-.4,1.321,1.321,0,0,0,.6-1.081v-5.326Z" transform="translate(3592 5292)" fill="#a0a0a0"/>
  </g>
</svg>
