<svg xmlns="http://www.w3.org/2000/svg" width="23.999" height="24" viewBox="0 0 23.999 24"><g transform="translate(-0.01)"><g transform="translate(0.01)"><path d="M350.905,3.832h-2.734a.549.549,0,0,1-.549-.549V.549A.549.549,0,0,0,347.073,0h-.818a.549.549,0,0,0-.549.549V3.283a.549.549,0,0,1-.549.549h-2.734a.549.549,0,0,0-.549.549V5.2a.549.549,0,0,0,.549.549h2.734a.549.549,0,0,1,.549.549V9.031a.549.549,0,0,0,.549.549h.818a.549.549,0,0,0,.549-.549V6.3a.549.549,0,0,1,.549-.549h2.734a.549.549,0,0,0,.549-.549V4.381A.549.549,0,0,0,350.905,3.832Z" transform="translate(-327.455)"/><path d="M1.611,22.549a6.97,6.97,0,0,0,1.624.837,9.739,9.739,0,0,0,1.826.483,11.377,11.377,0,0,0,1.789.144,9.558,9.558,0,0,0,6.287-1.889,5.205,5.205,0,0,0,2.1-4.067,4.669,4.669,0,0,0-.247-1.536,4.262,4.262,0,0,0-.644-1.226,7.715,7.715,0,0,0-.876-.952q-.479-.44-.958-.8t-.876-.692a3.453,3.453,0,0,1-.644-.692,1.288,1.288,0,0,1-.247-.735,1.581,1.581,0,0,1,.344-.973,5.772,5.772,0,0,1,.838-.88q.494-.425.988-.93a4.172,4.172,0,0,0,.838-1.334,4.916,4.916,0,0,0,.344-1.9,5.385,5.385,0,0,0-.584-2.438,4.423,4.423,0,0,0-1.2-1.507c-.233-.186-.2-.31.1-.31h.923A2.457,2.457,0,0,0,14.359.886L15.433.281c.261-.148.228-.267-.075-.267H9.365A13.915,13.915,0,0,0,6.566.3a6.379,6.379,0,0,0-3.5,2.041A5.279,5.279,0,0,0,1.641,5.956,4.543,4.543,0,0,0,3.236,9.5,5.567,5.567,0,0,0,7.06,10.918q.241,0,.525-.021c.289-.021.5.019.474.1q-.024.069-.057.154l-.12.31a1.552,1.552,0,0,0-.075.281,1.875,1.875,0,0,0-.03.339,3.137,3.137,0,0,0,.639,1.719c.166.244.073.436-.229.452q-.857.047-1.7.173a17.679,17.679,0,0,0-2.32.519A7.324,7.324,0,0,0,2,15.973,4.446,4.446,0,0,0,.564,17.567,4.289,4.289,0,0,0,.01,19.514a3.47,3.47,0,0,0,.449,1.753A3.937,3.937,0,0,0,1.611,22.549ZM7.119,9.677A3.812,3.812,0,0,1,5.952,8.7a6.95,6.95,0,0,1-.838-1.349,7.193,7.193,0,0,1-.531-1.5A6.386,6.386,0,0,1,4.41,4.427a3.8,3.8,0,0,1,.763-2.38,2.559,2.559,0,0,1,2.156-1,2.938,2.938,0,0,1,1.789.592,4.16,4.16,0,0,1,1.257,1.5,9.253,9.253,0,0,1,.7,1.882,7.49,7.49,0,0,1,.247,1.839,4.205,4.205,0,0,1-.374,1.859,2.8,2.8,0,0,1-.653.838,2.767,2.767,0,0,1-1.727.49A2.991,2.991,0,0,1,7.119,9.677Zm-3.937,7.63a3.228,3.228,0,0,1,1.033-1.082,5.96,5.96,0,0,1,1.467-.663A9.676,9.676,0,0,1,7.3,15.2a12.3,12.3,0,0,1,1.587-.1q.209,0,.375.005a1.368,1.368,0,0,1,.6.174l.228.152.494.332q.127.086.464.332t.479.368q.142.123.412.368a2.8,2.8,0,0,1,.4.426q.127.18.314.44a1.789,1.789,0,0,1,.262.5c.05.159.1.332.142.519a2.494,2.494,0,0,1,.068.584,3,3,0,0,1-.412,1.587,2.907,2.907,0,0,1-1.115,1.06,5.818,5.818,0,0,1-1.5.562,7.642,7.642,0,0,1-1.684.18,8.483,8.483,0,0,1-1.9-.216,7.754,7.754,0,0,1-1.8-.656A3.709,3.709,0,0,1,3.31,20.6a3.016,3.016,0,0,1-.531-1.752A2.949,2.949,0,0,1,3.183,17.307Z" transform="translate(-0.01 -0.013)"/></g></g></svg>