<svg xmlns="http://www.w3.org/2000/svg" xmlns:xlink="http://www.w3.org/1999/xlink" width="15.5" height="22.5" viewBox="0 0 15.5 22.5"><defs><clipPath id="a"><path d="M179.683,311.111a1.249,1.249,0,0,1,1.272.144l13.1,10.1a1.113,1.113,0,0,1,0,1.78l-13.1,10.1a1.235,1.235,0,0,1-.755.255,1.262,1.262,0,0,1-.517-.111,1.142,1.142,0,0,1-.683-1.033V312.144A1.142,1.142,0,0,1,179.683,311.111Z" fill="none" clip-rule="evenodd"/></clipPath><clipPath id="b"><rect width="16" height="24" transform="translate(179 310)" fill="none"/></clipPath><clipPath id="c"><rect width="375" height="667" transform="translate(-3 22)" fill="none"/></clipPath></defs><g transform="translate(-179 -311)"><g clip-path="url(#a)"><g style="isolation:isolate"><g clip-path="url(#b)"><g clip-path="url(#c)"><g style="isolation:isolate"><g clip-path="url(#b)"><rect width="20.5" height="27.5" transform="translate(176.5 308.5)" fill="#fff"/></g></g></g></g></g></g></g></svg>