<svg xmlns="http://www.w3.org/2000/svg" width="16.457" height="21.021" viewBox="0 0 16.457 21.021">
  <g id="ic_piano" transform="translate(-3818.049 -5868.479)">
    <path id="Trazado_184" data-name="Trazado 184" d="M305.783,587.815h-2v-2.923h.521a.258.258,0,0,0,.24-.24v-4.925h1.241Zm-10.01-8.088h1.241v4.925a.258.258,0,0,0,.24.24h.481v2.923h-2v-8.088Zm2.723,0v4.685h-1v-4.685Zm2.762,0v4.685h-1v-4.685Zm-.24,5.165h.481a.258.258,0,0,0,.24-.24v-4.925h.8v4.925a.258.258,0,0,0,.24.24h.481v2.923h-2.283v-2.923Zm-2.282,0a.258.258,0,0,0,.24-.24v-4.925h.8v4.925a.258.258,0,0,0,.24.24h.481v2.923h-2.283v-2.923Zm5.325-5.165v4.685h-1v-4.685Zm1.962-.481h-10.49a.259.259,0,0,0-.241.241v8.568a.258.258,0,0,0,.241.241h10.49a.259.259,0,0,0,.241-.241v-8.568A.26.26,0,0,0,306.023,579.246Z" transform="translate(3526 5297)" fill="#a0a0a0"/>
    <rect id="Rectángulo_105" data-name="Rectángulo 105" width="1.642" height="5.085" transform="translate(3825.937 5876.567)" fill="#a0a0a0"/>
    <rect id="Rectángulo_106" data-name="Rectángulo 106" width="1.642" height="5.085" transform="translate(3823.254 5876.567)" fill="#a0a0a0"/>
    <rect id="Rectángulo_107" data-name="Rectángulo 107" width="1.642" height="5.085" transform="translate(3828.7 5876.567)" fill="#a0a0a0"/>
    <path id="Trazado_185" data-name="Trazado 185" d="M292.77,591.819V577.084h4.885V572.2h10.17v19.62Zm4.2-15.415H293.25l3.724-3.724Zm-4.925.2v15.9h16.457V571.479H297.174Z" transform="translate(3526 5297)" fill="#a0a0a0"/>
  </g>
</svg>
