<?xml version="1.0" encoding="utf-8"?>
<!-- Generator: Adobe Illustrator 16.0.3, SVG Export Plug-In . SVG Version: 6.00 Build 0)  -->
<!DOCTYPE svg PUBLIC "-//W3C//DTD SVG 1.1//EN" "http://www.w3.org/Graphics/SVG/1.1/DTD/svg11.dtd">
<svg version="1.1" id="Capa_2" xmlns="http://www.w3.org/2000/svg" xmlns:xlink="http://www.w3.org/1999/xlink" x="0px" y="0px"
	 width="24px" height="24px" viewBox="0 0 24 24" enable-background="new 0 0 24 24" xml:space="preserve">
<g>
	<g>
		<g>
			<path fill="#FFFFFF" d="M20.408,8.896L20.3,8.857l-0.426-1.017l0.046-0.105c1.29-2.924,1.201-3.012,0.986-3.223l-1.719-1.678
				c-0.072-0.07-0.194-0.119-0.301-0.119c-0.097,0-0.391,0-2.931,1.151l-0.102,0.045L14.807,3.49l-0.043-0.104
				c-1.195-2.958-1.316-2.958-1.614-2.958H10.72c-0.296,0-0.431,0-1.539,2.963L9.14,3.498L8.097,3.924l-0.1-0.042
				C6.278,3.157,5.273,2.79,5.012,2.79c-0.106,0-0.23,0.048-0.301,0.117L2.99,4.589C2.771,4.805,2.681,4.895,4.038,7.759l0.05,0.106
				L3.662,8.88L3.557,8.92c-3.027,1.17-3.027,1.285-3.027,1.589v2.381c0,0.305,0,0.432,3.033,1.518l0.108,0.039l0.426,1.013
				l-0.045,0.104c-1.29,2.926-1.208,3.006-0.988,3.223l1.717,1.682c0.072,0.07,0.197,0.118,0.302,0.118c0.097,0,0.389,0,2.931-1.148
				l0.102-0.049l1.049,0.423l0.041,0.105c1.195,2.958,1.318,2.958,1.616,2.958h2.431c0.304,0,0.431,0,1.54-2.966l0.041-0.107
				l1.045-0.423l0.099,0.041c1.718,0.726,2.721,1.095,2.981,1.095c0.105,0,0.23-0.047,0.303-0.119l1.725-1.686
				c0.218-0.217,0.308-0.307-1.053-3.168l-0.05-0.107l0.426-1.009l0.101-0.039c3.033-1.176,3.033-1.293,3.033-1.598v-2.378
				C23.442,10.104,23.442,9.979,20.408,8.896z M11.987,15.511c-2.172,0-3.938-1.73-3.938-3.859c0-2.128,1.767-3.858,3.938-3.858
				c2.17,0,3.935,1.73,3.935,3.858C15.922,13.78,14.157,15.511,11.987,15.511z"/>
		</g>
	</g>
</g>
</svg>
