<svg xmlns="http://www.w3.org/2000/svg" width="15.833" height="20.84" viewBox="0 0 15.833 20.84">
  <g id="ic_trash" transform="translate(-3821 -5868.36)">
    <path id="Trazado_186" data-name="Trazado 186" d="M328.007,573.932h5.864a7.671,7.671,0,0,0-.045-1.038.776.776,0,0,0-.767-.631h-4.24a.776.776,0,0,0-.767.631A3.931,3.931,0,0,0,328.007,573.932Zm-3.338.811v.226c.09,1.4.135,2.752.226,4.15.045,1.173.135,2.3.18,3.473.09,1.489.18,2.932.225,4.421.046,1.172.136,2.39.181,3.563a.841.841,0,0,0,.9.857h9.067a.854.854,0,0,0,.9-.767c.045-1.127.135-2.255.18-3.338.045-1.172.136-2.39.181-3.563.09-1.534.18-3.022.225-4.556.045-.947.09-1.94.136-2.887.045-.5.045-1.037.09-1.533C333.014,574.743,328.864,574.743,324.669,574.743Zm8.435-3.337c.09,0,.18.045.271.045a1.64,1.64,0,0,1,1.263,1.578v.857h4.2v.722c0,.045-.091.09-.136.09h-.676c0,.226-.045.406-.045.632-.045,1.218-.136,2.436-.181,3.654-.09,1.488-.18,2.977-.225,4.465-.045,1.218-.136,2.436-.181,3.609-.045,1.218-.09,2.436-.18,3.654a1.6,1.6,0,0,1-1.669,1.488H327.2a9.46,9.46,0,0,1-1.128-.045,1.6,1.6,0,0,1-1.353-1.534c-.09-1.669-.18-3.428-.271-5.142-.09-1.443-.135-2.887-.225-4.375s-.181-2.932-.226-4.421l-.135-1.759v-.181h-.677c-.135,0-.18-.045-.18-.18v-.631h4.2v-.722a1.67,1.67,0,0,1,1.534-1.8c.045,0,.045,0,.09-.046C330.262,571.406,331.661,571.406,333.1,571.406Z" transform="translate(3498 5297)" fill="#a0a0a0"/>
    <path id="Trazado_187" data-name="Trazado 187" d="M330.533,576.458h.812v13.306h-.812Z" transform="translate(3498 5297)" fill="#a0a0a0"/>
    <path id="Trazado_188" data-name="Trazado 188" d="M333.826,589.809c-.271,0-.542-.045-.812-.045.27-4.42.541-8.886.857-13.352.271,0,.541.046.812.046C334.367,580.923,334.1,585.344,333.826,589.809Z" transform="translate(3498 5297)" fill="#a0a0a0"/>
    <path id="Trazado_189" data-name="Trazado 189" d="M327.2,576.5c.271,0,.541-.045.812-.045.271,4.42.586,8.841.857,13.306-.271,0-.541.045-.812.045C327.736,585.344,327.466,580.923,327.2,576.5Z" transform="translate(3498 5297)" fill="#a0a0a0"/>
  </g>
</svg>
